<?xml version="1.0" encoding="utf-8"?>
<!-- Generator: Adobe Illustrator 17.0.0, SVG Export Plug-In . SVG Version: 6.00 Build 0)  -->
<svg version="1.2" baseProfile="tiny" id="Layer_1" xmlns="http://www.w3.org/2000/svg" xmlns:xlink="http://www.w3.org/1999/xlink"
	 x="0px" y="0px" width="1151.604px" height="326px" viewBox="0 0 1151.604 326" xml:space="preserve">
<g>
	<path d="M134.271,124.758c25.209,0,45.454,20.245,45.454,45.434c0,25.233-20.245,45.487-45.454,45.487
		c-25.204,0-45.449-20.254-45.449-45.487C88.823,145.003,109.068,124.758,134.271,124.758z M134.271,202.679
		c17.912,0,32.449-14.552,32.449-32.487c0-17.911-14.537-32.434-32.449-32.434c-17.92,0-32.478,14.523-32.478,32.434
		C101.794,188.128,116.351,202.679,134.271,202.679z"/>
	<path d="M248.716,126.047c15.587,0,28.318,11.432,28.318,27.034c0,13.762-9.866,24.126-22.86,26.493l20.844,24.917
		c2.343,2.348,3.091,6.473,0.508,8.841c-2.608,2.605-7.514,1.845-10.115-1.041l-27.87-32.214h-22.861v28.621
		c0,3.593-2.856,6.19-6.478,6.19c-3.651,0-6.517-2.855-6.517-6.497v-75.818c0-3.628,2.866-6.526,6.517-6.526H248.716z
		 M214.681,138.52v29.099h34.035c9.08,0,15.319-6.248,15.319-14.538c0-8.317-6.239-14.561-15.319-14.561H214.681z"/>
	<path d="M364.566,168.937c7.805,3.862,12.995,11.916,12.995,20.744c0,13.531-11.169,24.672-24.658,24.672H308.72
		c-3.622,0-6.497-2.832-6.497-6.47v-75.309c0-3.628,2.875-6.526,6.497-6.526h41.567c13.503,0,24.677,11.174,24.677,24.677
		C374.963,158.534,371.082,165.027,364.566,168.937z M348.72,162.914c7.288,0,13.253-4.658,13.253-11.921
		c0-7.27-5.966-12.473-13.253-12.473h-33.494v24.394H348.72z M315.227,175.42v26.449h36.066c7.297,0,13.273-5.942,13.273-13.2
		c0-7.293-5.976-13.249-13.273-13.249H315.227z"/>
	<path d="M418.526,208.391c0,3.642-2.866,6.497-6.479,6.497c-3.631,0-6.492-2.855-6.492-6.497v-76.354
		c0-3.637,2.861-6.512,6.492-6.512c3.613,0,6.479,2.875,6.479,6.512V208.391z"/>
	<path d="M480.169,138.52h-32.473c-3.671,0-6.517-2.583-6.517-6.215c0-3.651,2.846-6.257,6.517-6.257h77.902
		c3.642,0,6.483,2.606,6.483,6.257c0,3.633-2.841,6.215-6.483,6.215H493.14v69.871c0,3.642-2.846,6.497-6.488,6.497
		c-3.642,0-6.483-2.855-6.483-6.497V138.52z"/>
	<path d="M559.673,161.15c0-32.497,19.987-36.393,35.075-36.393c3.633,0,6.494,2.851,6.494,6.502c0,3.613-2.861,6.497-6.494,6.497
		c-12.228,0-22.084,2.568-22.084,23.393v18.151c0,32.478-20.005,36.378-35.051,36.378c-3.656,0-6.531-2.865-6.531-6.521
		c0-3.636,2.875-6.479,6.531-6.479c12.2,0,22.06-2.583,22.06-23.378V161.15z"/>
	<path d="M661.606,124.758c25.218,0,45.473,20.245,45.473,45.434c0,25.233-20.255,45.487-45.473,45.487
		c-25.204,0-45.439-20.254-45.439-45.487C616.167,145.003,636.402,124.758,661.606,124.758z M661.606,202.679
		c17.954,0,32.502-14.552,32.502-32.487c0-17.911-14.548-32.434-32.502-32.434c-17.901,0-32.439,14.523-32.439,32.434
		C629.167,188.128,643.705,202.679,661.606,202.679z"/>
	<path d="M728.389,132.037c0-3.637,2.884-6.512,6.506-6.512c3.623,0,6.492,2.875,6.492,6.512v38.155
		c0,17.936,14.543,32.487,32.474,32.487c17.911,0,32.449-14.552,32.449-32.487v-38.155c0-3.637,2.884-6.512,6.507-6.512
		c3.633,0,6.503,2.875,6.503,6.512v38.155c0,25.233-20.274,45.487-45.459,45.487c-25.219,0-45.472-20.254-45.472-45.487V132.037z"/>
	<path d="M859.464,147.619v60.772c0,3.642-2.851,6.497-6.474,6.497c-3.676,0-6.497-2.855-6.497-6.497v-76.354
		c0-3.637,2.821-6.512,6.497-6.512c2.573,0,3.872,0.79,6.474,3.421l63.388,63.867v-60.776c0-3.637,2.852-6.512,6.483-6.512
		c3.646,0,6.498,2.875,6.498,6.512v76.354c0,3.642-2.852,6.497-6.498,6.497c-2.61,0-3.91-0.781-6.483-3.368L859.464,147.619z"/>
	<path d="M999.619,126.047c25.229,0,45.473,18.955,45.473,44.144c0,25.233-20.244,44.16-45.473,44.16h-28.567
		c-3.599,0-6.483-2.832-6.483-6.47v-75.309c0-3.628,2.885-6.526,6.483-6.526H999.619z M977.568,138.52v63.35h22.051
		c17.944,0,32.482-13.742,32.482-31.678c0-17.911-14.538-31.672-32.482-31.672H977.568z"/>
</g>
</svg>
