<svg width="527" height="237" fill="none" xmlns="http://www.w3.org/2000/svg"><path d="M85.5 72.16h92.321L227.772 101h72.321" stroke="#84BD00" stroke-width="10"/><path d="M85.5 62.16h55l82.272 47.5 44.614 77.273h63.453" stroke="#DA291C" stroke-width="10"/><path d="M85.5 82.16h69.641l60.311 34.821 34.613 59.952h80.774" stroke="#00A6D6" stroke-width="10"/><path d="M300.093 101l64.952-37.5h77.679" stroke="#444" stroke-width="10"/><path d="M442.724 76c6.904 0 12.5-5.596 12.5-12.5s-5.596-12.5-12.5-12.5c-6.903 0-12.5 5.596-12.5 12.5s5.597 12.5 12.5 12.5zM85.5 84.66c6.904 0 12.5-5.596 12.5-12.5 0-6.903-5.596-12.5-12.5-12.5S73 65.257 73 72.16c0 6.904 5.596 12.5 12.5 12.5zM222.772 132.16c6.904 0 12.5-5.596 12.5-12.5 0-6.903-5.596-12.5-12.5-12.5-6.903 0-12.5 5.597-12.5 12.5 0 6.904 5.597 12.5 12.5 12.5zM300.093 113.5c6.903 0 12.5-5.596 12.5-12.5s-5.597-12.5-12.5-12.5c-6.904 0-12.5 5.596-12.5 12.5s5.596 12.5 12.5 12.5z" fill="#fff" stroke="#000" stroke-width="5"/></svg>
