<svg width="527" height="237" fill="none" xmlns="http://www.w3.org/2000/svg"><path d="M73.5 69.428h73.76a75 75 0 0137.5 10.048l22.475 12.976a74.996 74.996 0 0037.5 10.048h57.76" stroke="#84BD00" stroke-width="8"/><path d="M73.5 61.428h43.904a75.002 75.002 0 0137.5 10.048l48.331 27.904a75.012 75.012 0 0127.452 27.452l13.991 24.235a75 75 0 0064.952 37.5h27.461" stroke="#DA291C" stroke-width="8"/><path d="M73.5 77.428h55.617a75.002 75.002 0 0137.5 10.048l30.761 17.761a74.988 74.988 0 0127.452 27.451l5.992 10.379a75 75 0 0064.952 37.5h41.317" stroke="#00A6D6" stroke-width="8"/><path d="M302.495 102.5l51.878-29.952a75.002 75.002 0 0137.5-10.048h62.048" stroke="#444" stroke-width="8"/><path d="M453.92 75c6.904 0 12.5-5.596 12.5-12.5S460.824 50 453.92 50c-6.903 0-12.5 5.596-12.5 12.5s5.597 12.5 12.5 12.5zM73.5 81.928c6.904 0 12.5-5.596 12.5-12.5 0-6.903-5.596-12.5-12.5-12.5S61 62.525 61 69.428c0 6.904 5.596 12.5 12.5 12.5zM220.638 129.928c6.904 0 12.5-5.596 12.5-12.5 0-6.903-5.596-12.5-12.5-12.5-6.903 0-12.5 5.597-12.5 12.5 0 6.904 5.597 12.5 12.5 12.5zM302.495 115c6.903 0 12.5-5.596 12.5-12.5s-5.597-12.5-12.5-12.5c-6.904 0-12.5 5.596-12.5 12.5s5.596 12.5 12.5 12.5z" fill="#fff" stroke="#000" stroke-width="5"/></svg>
